<svg width="220" height="52" viewBox="0 0 1614 376" fill="none" xmlns="http://www.w3.org/2000/svg">
<path d="M237.701 98.1442C179.201 158.644 -60.7989 161.144 110.201 208.144C81.701 211.478 20.4011 206.944 1.2011 168.144C-2.63223 193.144 1.20109 246.144 35.2011 277.644C84.2011 217.144 332.201 217.144 163.701 168.144C191.368 165.144 251.601 168.944 271.201 208.144C278.201 148.144 249.701 108.144 237.701 98.1442Z" fill="#55B02E"/>
<path d="M180.201 59.1442C60.2012 26.6442 17.7012 122.144 11.7012 130.644C38.2012 112.644 71.233 106.331 132.701 103.144C200.201 99.6442 250.701 71.1442 264.701 31.6442C263.035 32.6442 224.201 71.0609 180.201 59.1442Z" fill="#55B02E"/>
<path d="M89.7241 316.715C209.697 349.315 252.277 253.851 258.284 245.356C231.769 263.334 198.732 269.619 137.261 272.755C69.758 276.198 19.2342 304.656 5.20114 344.144C6.86865 343.146 45.7341 304.761 89.7241 316.715Z" fill="#55B02E"/>
<path d="M530.572 116.36C527.372 112.733 523.639 109.533 519.372 106.76C515.106 103.773 510.306 101.213 504.972 99.08C499.639 96.9467 493.879 95.24 487.692 93.96C481.719 92.68 475.319 92.04 468.492 92.04C448.652 92.04 434.039 95.88 424.652 103.56C415.479 111.027 410.892 121.267 410.892 134.28C410.892 143.24 413.026 150.28 417.292 155.4C421.772 160.52 428.706 164.68 438.092 167.88C447.479 171.08 459.426 174.387 473.932 177.8C490.146 181.213 504.119 185.267 515.852 189.96C527.586 194.653 536.652 201.053 543.052 209.16C549.452 217.053 552.652 227.827 552.652 241.48C552.652 251.933 550.626 261 546.572 268.68C542.519 276.36 536.866 282.76 529.612 287.88C522.359 293 513.719 296.84 503.692 299.4C493.666 301.747 482.679 302.92 470.732 302.92C458.999 302.92 447.692 301.747 436.812 299.4C426.146 296.84 416.012 293.213 406.412 288.52C396.812 283.613 387.852 277.427 379.532 269.96L390.732 251.72C394.786 255.987 399.586 260.04 405.132 263.88C410.892 267.507 417.186 270.813 424.012 273.8C431.052 276.787 438.519 279.133 446.412 280.84C454.519 282.333 462.839 283.08 471.372 283.08C489.506 283.08 503.586 279.773 513.612 273.16C523.852 266.547 528.972 256.733 528.972 243.72C528.972 234.333 526.412 226.867 521.292 221.32C516.172 215.56 508.492 210.867 498.252 207.24C488.012 203.613 475.426 200.093 460.492 196.68C444.706 193.053 431.372 189 420.492 184.52C409.612 180.04 401.399 174.173 395.852 166.92C390.519 159.453 387.852 149.64 387.852 137.48C387.852 123.4 391.266 111.56 398.092 101.96C405.132 92.1467 414.732 84.7867 426.892 79.88C439.052 74.76 453.026 72.2 468.812 72.2C478.839 72.2 488.119 73.2667 496.652 75.4C505.399 77.32 513.399 80.2 520.652 84.04C528.119 87.88 535.052 92.68 541.452 98.44L530.572 116.36ZM672.787 304.2C658.921 304.2 646.441 300.573 635.347 293.32C624.467 286.067 615.827 277.107 609.427 266.44V369.16H587.667V134.28H607.187V166.6C613.801 156.147 622.654 147.72 633.747 141.32C644.841 134.707 656.681 131.4 669.267 131.4C680.787 131.4 691.347 133.853 700.947 138.76C710.547 143.453 718.867 149.853 725.907 157.96C732.947 166.067 738.387 175.347 742.227 185.8C746.281 196.04 748.307 206.707 748.307 217.8C748.307 233.373 745.107 247.773 738.707 261C732.521 274.013 723.774 284.467 712.467 292.36C701.161 300.253 687.934 304.2 672.787 304.2ZM666.707 285C675.881 285 684.094 283.187 691.347 279.56C698.601 275.72 704.787 270.6 709.907 264.2C715.241 257.8 719.294 250.653 722.067 242.76C724.841 234.653 726.227 226.333 726.227 217.8C726.227 208.84 724.627 200.307 721.427 192.2C718.441 184.093 714.067 176.947 708.307 170.76C702.547 164.573 695.934 159.667 688.467 156.04C681.001 152.413 672.894 150.6 664.147 150.6C658.601 150.6 652.841 151.667 646.867 153.8C640.894 155.933 635.134 159.027 629.587 163.08C624.254 166.92 619.774 171.293 616.147 176.2C612.521 181.107 610.281 186.333 609.427 191.88V243.08C612.841 250.973 617.427 258.12 623.187 264.52C628.947 270.707 635.561 275.72 643.027 279.56C650.707 283.187 658.601 285 666.707 285ZM868.367 153.48C853.861 153.907 841.061 157.96 829.967 165.64C819.087 173.32 811.407 183.88 806.927 197.32V301H785.167V134.28H805.647V174.28C811.407 162.547 818.981 153.053 828.367 145.8C837.967 138.547 848.101 134.493 858.767 133.64C860.901 133.427 862.714 133.32 864.207 133.32C865.914 133.32 867.301 133.427 868.367 133.64V153.48ZM964.042 304.2C952.096 304.2 941.002 301.96 930.762 297.48C920.522 292.787 911.669 286.493 904.202 278.6C896.736 270.493 890.869 261.213 886.602 250.76C882.549 240.307 880.522 229.107 880.522 217.16C880.522 201.587 884.042 187.293 891.082 174.28C898.336 161.267 908.256 150.92 920.842 143.24C933.429 135.347 947.722 131.4 963.722 131.4C980.149 131.4 994.442 135.347 1006.6 143.24C1018.98 151.133 1028.68 161.587 1035.72 174.6C1042.76 187.4 1046.28 201.48 1046.28 216.84C1046.28 218.547 1046.28 220.253 1046.28 221.96C1046.28 223.453 1046.18 224.627 1045.96 225.48H903.242C904.309 237.427 907.616 248.093 913.162 257.48C918.922 266.653 926.282 274.013 935.242 279.56C944.416 284.893 954.336 287.56 965.002 287.56C975.882 287.56 986.122 284.787 995.722 279.24C1005.54 273.693 1012.36 266.44 1016.2 257.48L1035.08 262.6C1031.67 270.493 1026.44 277.64 1019.4 284.04C1012.36 290.44 1004.04 295.453 994.442 299.08C985.056 302.493 974.922 304.2 964.042 304.2ZM902.602 209.8H1025.8C1024.95 197.64 1021.64 186.973 1015.88 177.8C1010.34 168.627 1002.98 161.48 993.802 156.36C984.842 151.027 974.922 148.36 964.042 148.36C953.162 148.36 943.242 151.027 934.282 156.36C925.322 161.48 917.962 168.733 912.202 178.12C906.656 187.293 903.456 197.853 902.602 209.8ZM1063.59 286.28L1175.27 150.6H1066.15V134.28H1199.91V149L1088.87 284.68H1199.59V301H1063.59V286.28ZM1221.09 286.28L1332.77 150.6H1223.65V134.28H1357.41V149L1246.37 284.68H1357.09V301H1221.09V286.28Z" fill="currentColor"/>
<path d="M1392.67 301V134.28H1414.43V301H1392.67ZM1392.67 99.4V67.4H1414.43V99.4H1392.67ZM1448.91 253C1448.91 242.547 1451.9 233.587 1457.87 226.12C1463.85 218.44 1472.06 212.573 1482.51 208.52C1493.18 204.253 1505.45 202.12 1519.31 202.12C1527.42 202.12 1535.85 202.76 1544.59 204.04C1553.34 205.32 1561.13 207.24 1567.95 209.8V195.72C1567.95 181.64 1563.79 170.44 1555.47 162.12C1547.15 153.8 1535.63 149.64 1520.91 149.64C1511.95 149.64 1503.1 151.347 1494.35 154.76C1485.82 157.96 1476.86 162.76 1467.47 169.16L1459.15 153.8C1470.03 146.333 1480.7 140.787 1491.15 137.16C1501.61 133.32 1512.27 131.4 1523.15 131.4C1543.63 131.4 1559.85 137.267 1571.79 149C1583.74 160.733 1589.71 176.947 1589.71 197.64V274.76C1589.71 277.747 1590.35 279.987 1591.63 281.48C1592.91 282.76 1594.94 283.507 1597.71 283.72V301C1595.37 301.213 1593.34 301.427 1591.63 301.64C1589.93 301.853 1588.65 301.853 1587.79 301.64C1582.46 301.427 1578.41 299.72 1575.63 296.52C1572.86 293.32 1571.37 289.907 1571.15 286.28L1570.83 274.12C1563.37 283.72 1553.66 291.187 1541.71 296.52C1529.77 301.64 1517.61 304.2 1505.23 304.2C1494.57 304.2 1484.86 301.96 1476.11 297.48C1467.58 292.787 1460.86 286.6 1455.95 278.92C1451.26 271.027 1448.91 262.387 1448.91 253ZM1560.59 265.8C1562.94 262.813 1564.75 259.933 1566.03 257.16C1567.31 254.387 1567.95 251.933 1567.95 249.8V225.48C1560.7 222.707 1553.13 220.573 1545.23 219.08C1537.55 217.587 1529.77 216.84 1521.87 216.84C1506.3 216.84 1493.71 219.933 1484.11 226.12C1474.51 232.307 1469.71 240.733 1469.71 251.4C1469.71 257.587 1471.31 263.453 1474.51 269C1477.71 274.333 1482.41 278.813 1488.59 282.44C1494.78 285.853 1502.03 287.56 1510.35 287.56C1520.81 287.56 1530.51 285.533 1539.47 281.48C1548.65 277.427 1555.69 272.2 1560.59 265.8Z" fill="#55B02E"/>
</svg>
